<?xml version="1.0" encoding="utf-8"?>
<!-- Generator: Adobe Illustrator 21.0.0, SVG Export Plug-In . SVG Version: 6.00 Build 0)  -->
<svg version="1.1" id="Layer_1" xmlns="http://www.w3.org/2000/svg" xmlns:xlink="http://www.w3.org/1999/xlink" x="0px" y="0px"
	 viewBox="0 0 558 311" style="enable-background:new 0 0 558 311;" xml:space="preserve">
<style type="text/css">
	.st0{fill:#1A1A3A;}
	.st1{fill:none;stroke:#FFFFFF;stroke-width:0.75;stroke-miterlimit:10;}
	.st2{fill:#FF7E21;}
	.st3{fill:#FFFFFF;}
</style>
<rect class="st0" width="558" height="311"/>
<path class="st2" d="M513,273H50c-7.2,0-13-5.8-13-13v-13h489v13C526,267.2,520.2,273,513,273z"/>
<path class="st2" d="M526,64H37V51c0-7.2,5.8-13,13-13h463c7.2,0,13,5.8,13,13V64z"/>
<g>
	<g>
		<path class="st3" d="M81,232.6c-17-0.4-30.3-5.2-39.5-14.4c-10.1-9.3-15.2-21.4-15.2-35.7c0-13.6,4.5-25.1,13.2-34.5
			c5.7-6,13-10.2,21.8-12.5l-32.7-25.8l6.1-8.2c11.5-15.3,28.2-23.1,49.6-23.1c0.5,0,1,0,1.4,0c0.4,0,0.8,0,1.2,0
			c17.2,0,31.5,3.7,42.6,11l0.2,0.2c12.3,8.6,18.7,22.7,18.9,42l0,99.5h-46.3v-1.4c-5.9,1.9-12.8,2.9-21.1,2.9L81,232.6z M82.7,176
			c-7,0.2-9.8,1.7-10.7,2.3c-0.5,0.4-1,0.7-1,2.8l0,0.2c0,0.6,0,1.6,1.9,3.2l0.2,0.2l0.2,0.2c0.6,0.5,3.1,2.3,11,2.3l0.2,0
			c0.6,0,1.1,0,1.6,0c9.4,0,13.3-1.3,14.6-2c0.3-0.6,1.4-2.9,1.6-9.1H82.7z M75.8,125.3c-1.6,0.8-2.7,1.8-3.5,3.4l-2.9,5.4
			c2.6-0.3,5.4-0.5,8.2-0.5l24.8,0v-3.3c0-2.5-0.7-3.2-0.9-3.4c-0.7-0.7-3.5-2.8-13-2.8c-0.4,0-0.8,0-1.2,0l-0.2,0
			C82.4,124,78.7,124.4,75.8,125.3z"/>
		<path class="st0" d="M84.3,89c0.5,0,0.9,0,1.4,0c0.4,0,0.8,0,1.2,0c15.2,0,27.5,3.1,36.8,9.3c9.4,6.6,14.2,17.8,14.4,33.5v88.9
			h-25.3v-11.5h-0.5c-2.4,4.5-6,7.8-10.9,9.8c-5.2,2.2-11.9,3.3-20.3,3.3c-14.3-0.3-25.2-4.2-32.5-11.5c-8-7.3-12-16.7-12-28.1
			c0-10.8,3.5-19.9,10.4-27.3c6.9-7.3,17.1-11.1,30.6-11.3h35.1v-13.8c0.1-11.2-8.1-16.8-24.4-16.8c-0.5,0-1,0-1.4,0
			c-6,0-11,0.7-15,2c-3.9,1.8-6.9,4.5-8.9,8.1l-20-15.8C52.5,95.3,66.3,89,84.3,89 M86.2,197.6c9.7,0,16.6-1.3,20.7-3.9
			c4-2.8,6-9,6-18.8v-9.5H82.5c-14.8,0.4-22.2,5.7-22,15.8c0,4.3,1.9,8.1,5.8,11.3c3.7,3.4,9.7,5.1,18.1,5.1
			C85,197.6,85.6,197.6,86.2,197.6 M84.3,68c-24.6,0-44.7,9.4-58,27.3L14,111.7l16.1,12.7l11,8.7c-3.4,2.2-6.5,4.8-9.3,7.8
			c-10.5,11.2-16.1,25.6-16.1,41.7c0,17.1,6.4,32.1,18.5,43.3c11.2,11,26.9,16.9,46.5,17.3l0.2,0h0.2c6.3,0,11.9-0.5,17-1.5h14.6
			h25.3h21v-21v-88.9v-0.1l0-0.1c-0.3-28.5-12.9-43.2-23.3-50.5l-0.2-0.2l-0.2-0.2C122.5,72.3,106.3,68,87,68c-0.4,0-0.8,0-1.1,0
			C85.3,68,84.8,68,84.3,68L84.3,68z"/>
	</g>
	<g>
		<path class="st3" d="M200.4,230.6c-11.7,0-21.8-3-29.9-9c-9.2-6.7-13.8-17.8-13.8-32.9V27.5h47.1v157.6h18.6v45.5H200.4z"/>
		<path class="st0" d="M193.3,38v148.6c0,6,3.3,9,9.8,9h8.9v24.5h-11.5c-9.5,0-17.4-2.3-23.8-6.9c-6.3-4.6-9.5-12.8-9.5-24.4V38
			H193.3 M214.3,17h-21h-26.1h-21v21v150.7c0,23.3,9.9,35.4,18.1,41.4c10,7.3,22.1,11,36.1,11h11.5h21v-21v-24.5v-21h-18.6V38V17
			L214.3,17z"/>
	</g>
	<g>
		<path class="st3" d="M266.4,230.6c-11.7,0-21.8-3-29.9-9c-9.2-6.7-13.8-17.8-13.8-32.9V27.5h47.1v157.6h18.6v45.5H266.4z"/>
		<path class="st0" d="M259.3,38v148.6c0,6,3.3,9,9.8,9h8.9v24.5h-11.5c-9.5,0-17.4-2.3-23.8-6.9c-6.3-4.6-9.5-12.8-9.5-24.4V38
			H259.3 M280.3,17h-21h-26.1h-21v21v150.7c0,23.3,9.9,35.4,18.1,41.4c10,7.3,22.1,11,36.1,11h11.5h21v-21v-24.5v-21h-18.6V38V17
			L280.3,17z"/>
	</g>
	<g>
		<path class="st3" d="M346.3,232.1c-11.9,0-22-2.2-29.8-6.6c-7.3-4.1-13.2-8.6-17.5-13.4c-6-6.5-10.3-14.1-12.9-22.3
			c-2.5-7.9-3.7-19.3-3.7-34.7c0-15.1,1.2-26.4,3.7-34.3c2.6-8.3,7-15.8,13-22.4c4.3-4.7,10.2-9.2,17.4-13.3
			c7.9-4.5,17.9-6.8,29.9-6.8c11.8,0,21.8,2.3,29.7,6.7c7.3,4.1,13.1,8.6,17.5,13.3c6,6.6,10.4,14.2,13,22.4
			c2.5,7.9,3.7,19.2,3.7,34.3c0,15.4-1.2,26.7-3.7,34.7c-2.6,8.3-7,15.8-13,22.4c-4.3,4.8-10.2,9.3-17.6,13.4
			C368,229.9,358,232.1,346.3,232.1z M346.3,125.5c-8,0-10.9,2.9-12.4,5l-0.1,0.1c-1.7,2.4-2.8,4.7-3.4,7.2c-0.4,1.7-1,6.2-1,17.3
			c0,11.4,0.7,16,1.1,17.8c0.6,2.5,1.6,4.8,3.3,7l0.1,0.2c1.5,2.1,4.4,5,12.4,5c7.7,0,10.8-2.8,12.4-5c1.6-2.4,2.7-4.8,3.3-7.4
			c0.4-1.7,1.1-6.2,1.1-17.3c0-11.2-0.7-15.6-1.1-17.3c-0.6-2.6-1.8-5.1-3.4-7.5C357,128.3,353.9,125.5,346.3,125.5z"/>
		<path class="st0" d="M346.3,88.9c10,0,18.2,1.8,24.5,5.4c6.3,3.6,11.3,7.3,14.9,11.3c5,5.5,8.6,11.7,10.8,18.5
			c2.2,6.8,3.3,17.2,3.3,31.1c0,14.2-1.1,24.7-3.3,31.5c-2.2,6.8-5.8,13-10.8,18.5c-3.6,4-8.5,7.8-14.9,11.3
			c-6.3,3.5-14.5,5.3-24.5,5.3c-10.2,0-18.4-1.8-24.7-5.3c-6.3-3.5-11.2-7.3-14.8-11.3c-5-5.5-8.6-11.7-10.8-18.5
			c-2.2-6.8-3.3-17.3-3.3-31.5c0-13.9,1.1-24.3,3.3-31.1c2.2-6.8,5.8-13,10.8-18.5c3.6-3.9,8.5-7.7,14.8-11.3
			C327.9,90.7,336.1,88.9,346.3,88.9 M346.3,195.6c9.4,0,16.4-3.2,21-9.5c2.3-3.4,4-7,4.9-10.9c1-3.8,1.4-10.5,1.4-19.9
			c0-9.4-0.5-16-1.4-19.9c-1-3.8-2.6-7.5-4.9-11c-4.6-6.3-11.6-9.5-21-9.5c-9.6,0-16.6,3.2-21,9.5c-2.5,3.5-4.2,7.2-5.1,11
			c-0.9,3.8-1.3,10.4-1.3,19.6c0,9.5,0.4,16.2,1.3,20.1s2.6,7.5,5.1,10.9C329.7,192.5,336.7,195.6,346.3,195.6 M346.3,67.9
			c-13.8,0-25.6,2.7-35.1,8.1c-8.3,4.7-14.8,9.7-19.9,15.3l0,0l0,0c-7,7.7-12.2,16.6-15.2,26.3c-2.8,9-4.2,21.2-4.2,37.5
			c0,16.5,1.4,28.9,4.2,37.9c3.1,9.7,8.2,18.5,15.2,26.2c5.2,5.8,11.8,10.9,20.2,15.5c9.4,5.2,21.2,7.9,34.9,7.9
			c13.5,0,25.2-2.6,34.7-7.9c8.5-4.7,15.1-9.8,20.3-15.6c7-7.7,12.1-16.5,15.2-26.2c2.8-9,4.2-21.4,4.2-37.9
			c0-16.2-1.4-28.5-4.2-37.5c-3.1-9.7-8.2-18.6-15.2-26.3l0,0l0,0c-5.1-5.6-11.7-10.6-20-15.3C371.6,70.6,359.9,67.9,346.3,67.9
			L346.3,67.9z M342.5,136.5c0.3-0.1,1.4-0.5,3.8-0.5c0.8,0,3.1,0.1,3.9,0.7c0.8,1.3,1.4,2.6,1.7,3.9c0,0.1,0.8,3.4,0.8,14.8
			c0,11.4-0.8,14.7-0.8,14.8c-0.3,1.3-0.9,2.5-1.7,3.7c-0.7,0.7-3.1,0.7-3.9,0.7c-2.4,0-3.5-0.4-3.8-0.5c0,0,0,0,0,0l-0.1-0.2
			l-0.1-0.2c-0.8-1.1-1.3-2.1-1.5-3.2c-0.1-0.4-0.8-3.9-0.8-15.4c0-11.2,0.7-14.6,0.8-15c0.3-1.1,0.8-2.2,1.7-3.5l0.1-0.1
			L342.5,136.5C342.5,136.5,342.5,136.5,342.5,136.5L342.5,136.5z"/>
	</g>
	<g>
		<path class="st3" d="M414,283.1v-45.6h18.3c3.3,0,4.6-0.9,5.7-4.1l5.9-18.1L393.4,79.9h50.2l23.5,69.4l23.5-69.4h50l-60.8,170.7
			c-4.5,12.4-11.2,21.1-19.9,25.9c-8,4.4-16.9,6.6-26.6,6.6H414z"/>
		<path class="st0" d="M525.6,90.4L525.6,90.4 M525.6,90.4L469.9,247c-3.7,10-8.7,16.8-15.1,20.3c-6.4,3.5-13.6,5.3-21.5,5.3h-8.8
			V248h7.8c7.8,0,13-3.8,15.6-11.3l7.1-21.6L408.5,90.4H436l30.8,90.9h0.5L498,90.4H525.6 M555.4,69.4h-29.8H498h-15.1l-4.8,14.3
			L467,116.5l-11.1-32.8l-4.8-14.3H436h-27.5h-30.2l10.6,28.3l43.9,117.8L429,227h-4.5h-21v21v24.6v21h21h8.8
			c11.5,0,22.1-2.7,31.6-7.9c10.9-6,19.3-16.6,24.7-31.5l0-0.1l0-0.1l55.8-156.6L555.4,69.4L555.4,69.4z M525.6,69.4L525.6,69.4
			L525.6,69.4L525.6,69.4z M525.6,111.4L525.6,111.4L525.6,111.4L525.6,111.4z"/>
	</g>
</g>
</svg>
